<svg width="192" height="33" viewBox="0 0 192 33" xmlns="http://www.w3.org/2000/svg"><g fill="#111"><path d="M.811 3.093v10.43h3.4c2.213 0 3.526-1.136 3.526-2.995 0-1.232-.649-2.146-1.718-2.56.796-.471 1.231-1.253 1.231-2.22 0-1.644-1.194-2.655-3.23-2.655zm3.393 4.463h-2.11v-3.32h1.837c1.343 0 2.066.62 2.066 1.653 0 1.077-.738 1.667-1.793 1.667zm.06 4.816h-2.17V8.67h2.339c1.246 0 1.984.701 1.984 1.83 0 1.246-.745 1.873-2.154 1.873zM11.403 13.67c.966 0 1.8-.457 2.316-1.21v1.063h1.217V6.147h-1.217v4.307c0 1.291-.856 2.132-2.006 2.132-1.121 0-1.8-.7-1.8-1.955V6.147H8.69v4.684c0 1.726 1.032 2.84 2.714 2.84zM17.186 4.554a.77.77 0 00.76-.767.77.77 0 00-.76-.767.771.771 0 00-.768.767c0 .42.347.767.768.767zm-.62 8.969h1.224V6.147h-1.224zM19.42 13.523h1.225V3.093H19.42zM28.987 13.523V3.093H27.77v4.138C27.172 6.405 26.324 6 25.32 6 23.33 6 21.87 7.46 21.87 9.842c0 2.368 1.46 3.828 3.445 3.828 1.003 0 1.858-.405 2.456-1.231v1.084zm-3.548-.93c-1.38 0-2.323-1.054-2.323-2.766 0-1.696.944-2.75 2.338-2.75 1.438 0 2.42 1.054 2.42 2.758s-.982 2.758-2.435 2.758zM36.997 13.67c1.807 0 3.039-.848 3.481-2.448H39.24c-.317.914-1.01 1.386-2.146 1.386-1.453 0-2.405-1.018-2.405-2.773 0-1.623 1.026-2.773 2.405-2.773 1.136 0 1.777.45 2.065 1.379h1.261c-.413-1.638-1.504-2.442-3.334-2.442-2.072 0-3.636 1.653-3.636 3.865 0 2.302 1.453 3.806 3.548 3.806zM44.203 13.67c.966 0 1.8-.457 2.316-1.21v1.063h1.217V6.147H46.52v4.307c0 1.291-.856 2.132-2.006 2.132-1.121 0-1.8-.7-1.8-1.955V6.147H41.49v4.684c0 1.726 1.032 2.84 2.714 2.84zM51.586 13.67c1.763 0 2.766-.93 2.766-2.146 0-2.766-4.16-1.763-4.16-3.555 0-.524.443-.989 1.276-.989.944 0 1.46.45 1.497 1.262h1.114c-.015-1.424-.885-2.243-2.552-2.243-1.578 0-2.5.915-2.5 2.044 0 2.817 4.138 1.718 4.138 3.584 0 .642-.517 1.077-1.55 1.07-1.135 0-1.651-.487-1.688-1.35h-1.129c.06 1.468 1.07 2.323 2.788 2.323zM58.313 13.64c.273 0 .568-.029.804-.102v-1.122a2.51 2.51 0 01-.738.104c-.796 0-1.21-.45-1.21-1.608V7.194h1.918V6.147H57.17V4.229l-1.203.155v1.763h-1.224v1.047h1.217l-.007 3.718c0 1.844.804 2.729 2.36 2.729zM63.402 13.67c2.132 0 3.799-1.674 3.799-3.828C67.2 7.682 65.534 6 63.41 6c-2.132 0-3.806 1.675-3.806 3.828 0 2.162 1.674 3.843 3.798 3.843zm.008-1.077c-1.446 0-2.552-1.172-2.552-2.766 0-1.578 1.106-2.75 2.544-2.75 1.446 0 2.552 1.172 2.552 2.765 0 1.579-1.106 2.751-2.544 2.751zM68.33 13.523h1.224V9.178c0-1.276.826-2.094 1.932-2.094 1.084 0 1.733.678 1.733 1.917v4.522h1.225V9.178c0-1.283.818-2.094 1.932-2.094 1.077 0 1.734.678 1.734 1.917v4.522h1.224V8.832c0-1.726-1.018-2.833-2.655-2.833-1.1 0-1.977.517-2.53 1.402-.406-.885-1.232-1.402-2.36-1.402-.952 0-1.77.458-2.272 1.21V6.147h-1.188zM84.077 13.67c1.807 0 3.09-.811 3.474-2.56h-1.24c-.28 1.033-1.076 1.49-2.19 1.49-1.402 0-2.324-.906-2.412-2.47h5.908a9.06 9.06 0 00.03-.775c0-2.153-1.38-3.356-3.393-3.356-2.184 0-3.792 1.623-3.792 3.91 0 2.293 1.402 3.761 3.615 3.761zm.147-6.616c1.29 0 2.169.745 2.198 2.102h-4.654c.25-1.268 1.173-2.102 2.456-2.102zM88.812 13.523h1.195V9.968c0-1.653.892-2.752 2.117-2.752.287 0 .501.045.715.118V6.103a2.893 2.893 0 00-.715-.081c-.922 0-1.704.582-2.11 1.608V6.147h-1.202zM100.06 13.64c.273 0 .568-.029.804-.102v-1.122a2.51 2.51 0 01-.738.104c-.796 0-1.21-.45-1.21-1.608V7.194h1.918V6.147h-1.917V4.229l-1.203.155v1.763H96.49v1.047h1.217l-.007 3.718c0 1.844.804 2.729 2.36 2.729zM101.823 13.523h1.195V9.968c0-1.653.892-2.752 2.116-2.752.288 0 .502.045.716.118V6.103a2.893 2.893 0 00-.716-.081c-.922 0-1.703.582-2.11 1.608V6.147h-1.201zM109.597 13.67c.966 0 1.8-.457 2.316-1.21v1.063h1.217V6.147h-1.217v4.307c0 1.291-.856 2.132-2.006 2.132-1.122 0-1.8-.7-1.8-1.955V6.147h-1.225v4.684c0 1.726 1.033 2.84 2.715 2.84zM116.98 13.67c1.763 0 2.766-.93 2.766-2.146 0-2.766-4.16-1.763-4.16-3.555 0-.524.442-.989 1.276-.989.944 0 1.46.45 1.497 1.262h1.114c-.015-1.424-.885-2.243-2.552-2.243-1.579 0-2.5.915-2.5 2.044 0 2.817 4.137 1.718 4.137 3.584 0 .642-.516 1.077-1.549 1.07-1.135 0-1.652-.487-1.689-1.35h-1.128c.059 1.468 1.07 2.323 2.788 2.323zM123.707 13.64c.273 0 .568-.029.804-.102v-1.122a2.51 2.51 0 01-.738.104c-.797 0-1.21-.45-1.21-1.608V7.194h1.918V6.147h-1.918V4.229l-1.202.155v1.763h-1.224v1.047h1.217l-.008 3.718c0 1.844.804 2.729 2.36 2.729zM128.058 6.147l2.176 7.376h1.143l1.83-5.672 1.836 5.672h1.136l2.198-7.376h-1.328l-1.475 5.517-1.785-5.517h-1.143l-1.785 5.524-1.475-5.524zM139.904 4.554a.77.77 0 00.76-.767.77.77 0 00-.76-.767.771.771 0 00-.767.767c0 .42.346.767.767.767zm-.62 8.969h1.225V6.147h-1.225zM145.023 13.64c.273 0 .568-.029.804-.102v-1.122a2.51 2.51 0 01-.738.104c-.797 0-1.21-.45-1.21-1.608V7.194h1.918V6.147h-1.918V4.229l-1.202.155v1.763h-1.224v1.047h1.217l-.008 3.718c0 1.844.804 2.729 2.36 2.729zM146.712 13.523h1.224V9.215c0-1.29.856-2.131 2.006-2.131 1.121 0 1.8.7 1.8 1.954v4.485h1.224V8.832c0-1.726-1.04-2.833-2.714-2.833-.966 0-1.8.458-2.316 1.21V3.093h-1.224zM159.848 13.67c1.217 0 2.043-.428 2.663-1.394l.066 1.247h1.025V8.957c0-1.844-1.136-2.958-2.913-2.958-1.55 0-2.633.812-2.921 2.191l1.15.015c.214-.708.797-1.136 1.712-1.136 1.136 0 1.814.708 1.814 1.955v.53a6.284 6.284 0 00-2.131-.383c-1.86 0-2.95.907-2.943 2.316-.008 1.328.892 2.183 2.478 2.183zm-1.254-2.25c-.007-.737.62-1.268 1.77-1.268.76 0 1.372.125 2.065.42-.095 1.085-.914 2.058-2.367 2.058-1.003 0-1.475-.487-1.468-1.21zM165.114 13.523h1.225V9.215c0-1.29.855-2.131 2.006-2.131 1.12 0 1.8.7 1.8 1.954v4.485h1.224V8.832c0-1.726-1.04-2.833-2.714-2.833-.967 0-1.8.458-2.316 1.21V6.147h-1.225z"/></g><g fill="#111"><path d="M3.695 30.28c2.19 0 3.452-1.093 3.452-2.789 0-3.68-5.207-2.722-5.207-5.37 0-.833.568-1.438 1.748-1.438 1.232 0 1.822.575 1.873 1.55l1.262.006c-.067-1.718-1.07-2.677-3.083-2.677-1.918 0-3.061 1.121-3.061 2.604 0 3.761 5.214 2.729 5.214 5.42 0 1.04-.7 1.58-2.11 1.58-1.423 0-2.13-.635-2.227-1.778L.273 27.38c.088 1.763 1.305 2.9 3.422 2.9zM11.233 30.28c2.19 0 3.452-1.093 3.452-2.789 0-3.68-5.207-2.722-5.207-5.37 0-.833.568-1.438 1.748-1.438 1.232 0 1.822.575 1.873 1.55l1.262.006c-.067-1.718-1.07-2.677-3.083-2.677-1.918 0-3.061 1.121-3.061 2.604 0 3.761 5.214 2.729 5.214 5.42 0 1.04-.7 1.58-2.11 1.58-1.423 0-2.13-.635-2.227-1.778l-1.283-.008c.088 1.763 1.305 2.9 3.422 2.9zM15.887 19.71v10.429h5.953v-1.217h-4.67V19.71zM26.553 33.192h1.224v-4.137c.598.826 1.446 1.231 2.449 1.231 1.984 0 3.452-1.46 3.452-3.842 0-2.368-1.46-3.828-3.445-3.828-1.003 0-1.858.405-2.456 1.231v-1.084h-1.224zm3.54-3.982c-1.445 0-2.42-1.055-2.42-2.759s.982-2.759 2.435-2.759c1.38 0 2.323 1.055 2.323 2.766 0 1.697-.951 2.752-2.338 2.752zM34.895 30.139h1.224v-10.43h-1.224zM39.785 30.286c1.217 0 2.043-.427 2.663-1.394l.066 1.247h1.025v-4.566c0-1.844-1.136-2.957-2.913-2.957-1.55 0-2.633.811-2.921 2.19l1.15.015c.215-.708.797-1.136 1.712-1.136 1.136 0 1.814.708 1.814 1.955v.53a6.284 6.284 0 00-2.131-.383c-1.86 0-2.95.907-2.943 2.316-.008 1.328.892 2.183 2.478 2.183zm-1.254-2.25c-.007-.737.62-1.268 1.77-1.268.76 0 1.372.126 2.065.42-.095 1.085-.914 2.058-2.367 2.058-1.003 0-1.475-.486-1.468-1.21zM45.051 30.139h1.225V25.83c0-1.29.855-2.131 2.006-2.131 1.121 0 1.8.7 1.8 1.954v4.485h1.224v-4.691c0-1.726-1.04-2.832-2.714-2.832-.967 0-1.8.457-2.316 1.21v-1.063H45.05zM56.742 30.139h1.224v-6.35h1.83v-1.026h-1.83v-.678c0-.996.37-1.439 1.092-1.439.229 0 .472.037.737.118v-1.113a2.956 2.956 0 00-.73-.089c-1.49 0-2.323.9-2.323 2.626v.575h-1.328v1.025h1.328zM60.68 30.139h1.195v-3.555c0-1.652.893-2.751 2.117-2.751.288 0 .502.044.716.118v-1.232a2.893 2.893 0 00-.716-.081c-.922 0-1.704.582-2.11 1.608v-1.483h-1.201zM68.956 30.286c2.132 0 3.799-1.674 3.799-3.828 0-2.16-1.667-3.842-3.791-3.842-2.132 0-3.806 1.674-3.806 3.828 0 2.16 1.674 3.842 3.798 3.842zm.008-1.076c-1.446 0-2.552-1.173-2.552-2.766 0-1.579 1.106-2.752 2.544-2.752 1.446 0 2.552 1.173 2.552 2.766 0 1.579-1.106 2.752-2.544 2.752zM73.883 30.139h1.225v-4.344c0-1.276.826-2.095 1.932-2.095 1.084 0 1.733.678 1.733 1.918v4.52h1.225v-4.343c0-1.284.818-2.095 1.932-2.095 1.077 0 1.733.678 1.733 1.918v4.52h1.225v-4.69c0-1.726-1.018-2.832-2.655-2.832-1.1 0-1.977.516-2.53 1.401-.406-.885-1.232-1.401-2.36-1.401-.952 0-1.77.457-2.272 1.21v-1.063h-1.188zM94.321 30.286c1.601 0 2.87-.62 3.556-1.836l.103 1.689h1.018V24.79h-3.732v1.07h2.53v.133c0 1.57-1.055 3.15-3.379 3.15-2.515 0-3.688-1.638-3.688-4.242 0-2.663 1.417-4.204 3.703-4.204 1.837 0 2.906.797 3.201 2.323h1.32c-.354-2.19-1.895-3.459-4.528-3.459-3.076 0-5.03 2.139-5.03 5.384 0 3.371 1.88 5.34 4.926 5.34zM103.851 30.286c2.132 0 3.799-1.674 3.799-3.828 0-2.16-1.667-3.842-3.792-3.842-2.131 0-3.806 1.674-3.806 3.828 0 2.16 1.675 3.842 3.799 3.842zm.007-1.076c-1.445 0-2.552-1.173-2.552-2.766 0-1.579 1.107-2.752 2.545-2.752 1.446 0 2.552 1.173 2.552 2.766 0 1.579-1.106 2.752-2.545 2.752zM108.778 30.139h2.877c3.57 0 5.51-1.851 5.51-5.23 0-3.37-1.94-5.2-5.474-5.2h-2.913zm1.283-1.165v-8.1h1.601c2.663 0 4.16 1.306 4.16 4.05 0 2.751-1.372 4.05-4.153 4.05zM120.483 30.286c1.217 0 2.043-.427 2.663-1.394l.066 1.247h1.026v-4.566c0-1.844-1.136-2.957-2.914-2.957-1.549 0-2.633.811-2.92 2.19l1.15.015c.214-.708.797-1.136 1.711-1.136 1.136 0 1.815.708 1.815 1.955v.53a6.284 6.284 0 00-2.132-.383c-1.859 0-2.95.907-2.943 2.316-.007 1.328.893 2.183 2.478 2.183zm-1.253-2.25c-.008-.737.62-1.268 1.77-1.268.76 0 1.372.126 2.065.42-.096 1.085-.915 2.058-2.368 2.058-1.003 0-1.475-.486-1.467-1.21zM132.462 30.139v-10.43h-1.217v4.138c-.598-.826-1.446-1.231-2.45-1.231-1.99 0-3.451 1.46-3.451 3.842 0 2.368 1.46 3.828 3.445 3.828 1.003 0 1.858-.405 2.456-1.231v1.084zm-3.548-.93c-1.38 0-2.323-1.054-2.323-2.765 0-1.697.944-2.752 2.338-2.752 1.438 0 2.419 1.055 2.419 2.759s-.981 2.759-2.434 2.759zM140.804 30.139v-10.43h-1.217v4.138c-.598-.826-1.446-1.231-2.45-1.231-1.99 0-3.451 1.46-3.451 3.842 0 2.368 1.46 3.828 3.445 3.828 1.003 0 1.858-.405 2.456-1.231v1.084zm-3.548-.93c-1.38 0-2.323-1.054-2.323-2.765 0-1.697.944-2.752 2.338-2.752 1.438 0 2.419 1.055 2.419 2.759s-.981 2.759-2.434 2.759zM145.377 33.34c2.006 0 3.252-1.224 3.252-3.46v-7.117h-1.217v4.285c0 1.291-.855 2.132-2.006 2.132-1.136 0-1.8-.693-1.8-1.955v-4.462h-1.224v4.662c0 1.718 1.025 2.832 2.714 2.832.967 0 1.8-.457 2.316-1.21v1.026c0 1.548-.715 2.271-2.043 2.271-1.106 0-1.681-.464-1.844-1.357h-1.18c.221 1.46 1.247 2.353 3.032 2.353z"/></g></svg>