<svg id="Layer_1" xmlns="http://www.w3.org/2000/svg" xmlns:xlink="http://www.w3.org/1999/xlink" viewBox="0 0 1650 300" width="100%" height="100%" preserveAspectRatio="none"><defs><style> .cls-1 { fill: #111; } .cls-2 { fill: url(#radial-gradient); } .cls-3 { fill: url(#linear-gradient); } </style><radialGradient id="radial-gradient" cx="1418.6" cy="88.72" fx="1418.6" fy="88.72" r="258.04" gradientUnits="userSpaceOnUse"><stop offset=".01" stop-color="#c184ff"/><stop offset=".36" stop-color="#9f66f7"/><stop offset="1" stop-color="#5827e6"/></radialGradient><linearGradient id="linear-gradient" x1="1317.75" y1="95.98" x2="1347.52" y2="173.57" gradientUnits="userSpaceOnUse"><stop offset=".12" stop-color="#c184ff" stop-opacity="0"/><stop offset=".27" stop-color="#b176fb" stop-opacity=".15"/><stop offset=".6" stop-color="#8a54f2" stop-opacity=".52"/><stop offset="1" stop-color="#5827e6"/></linearGradient></defs><path class="cls-2" d="M1605.2,130.69c.6-.29,1.08-.71,1.43-1.23.35-.54.52-1.11.52-1.73,0-1.01-.36-1.84-1.09-2.49-.73-.65-1.69-.97-2.89-.97h-3.83c-.08,0-.16.03-.23.1-.07.06-.11.14-.11.22v9.73c0,.09.03.17.1.24.07.06.15.1.24.1h1.73c.1,0,.18-.04.24-.1.07-.07.1-.15.1-.24v-3.18h1.38l1.95,3.1c.1.14.2.24.3.3.1.06.22.09.37.09h1.72c.15,0,.26-.06.32-.16.06-.11.05-.23-.05-.36l-2.21-3.43ZM1604.2,128.7c-.28.25-.66.38-1.12.39h-1.68v-2.77h1.68c.47,0,.85.13,1.13.37.27.25.42.59.42,1.01s-.14.75-.42,1ZM1611.08,126.06c-.45-1.07-1.08-2.02-1.92-2.85-.82-.8-1.77-1.43-2.85-1.86-1.07-.44-2.21-.66-3.41-.66s-2.33.22-3.42.65c-1.08.43-2.04,1.06-2.85,1.87-.83.82-1.48,1.76-1.92,2.83-.45,1.07-.67,2.21-.67,3.41s.22,2.33.67,3.4c.44,1.07,1.08,2.02,1.92,2.83.82.81,1.77,1.44,2.85,1.87s2.22.65,3.42.65,2.33-.22,3.41-.65c1.07-.44,2.03-1.06,2.85-1.87.83-.82,1.47-1.76,1.92-2.84.44-1.07.66-2.21.66-3.39s-.22-2.32-.66-3.39ZM1607.96,134.58c-1.36,1.39-3.04,2.08-5.04,2.08s-3.7-.69-5.08-2.08c-1.36-1.38-2.05-3.09-2.05-5.12s.69-3.75,2.05-5.14c1.37-1.4,3.06-2.09,5.08-2.09s3.69.7,5.04,2.09c1.36,1.39,2.04,3.1,2.04,5.14s-.68,3.74-2.04,5.12ZM1351.91,151.71l-29.86-75h-18.54l-54.82,137.92c-4.03,10.15,3.44,21.16,14.36,21.16,1.53,0,3.05-.23,4.5-.67,1.45-.44,2.84-1.09,4.11-1.95l68.01-45.62,11.75,32.38h27.66l-18.49-46.42,34.66-23.25v69.67h24.13v-97.27h-24.13l-43.34,29.04ZM1281.09,199.17l31.44-86.35,19.07,52.5-50.5,33.84ZM1426.44,89.56h0c0,1.44-.8,2.75-2.07,3.42-5.66,2.99-10.3,7.63-13.29,13.29-.68,1.27-1.98,2.07-3.42,2.07-.72,0-1.4-.2-1.99-.56-.59-.36-1.08-.88-1.42-1.51-2.99-5.66-7.64-10.3-13.29-13.29-1.27-.67-2.07-1.98-2.07-3.42h0c0-1.44.8-2.75,2.07-3.42,5.66-2.99,10.3-7.63,13.29-13.29.67-1.27,1.98-2.07,3.42-2.07.72,0,1.4.2,1.99.56.59.36,1.09.88,1.43,1.51,2.99,5.66,7.63,10.3,13.29,13.29,1.27.67,2.07,1.98,2.07,3.42ZM1492.41,121.13c1.78.33,3.23.61,4.33.97v23.92c-1.1-.45-2.49-.87-4.11-1.23-1.62-.39-3.68-.55-6.27-.55-5.52,0-10.34,1.55-14.42,4.65-4.1,3.07-7.27,7.31-9.5,12.64-2.23,5.33-3.36,11.44-3.36,18.29v40.11h-23.34v-97.27h23.53v17.72c2.46-5.82,5.79-10.44,9.99-13.8,4.88-3.94,10.38-5.88,16.52-5.88,2.61,0,4.85.13,6.62.42ZM1573.62,127.5c-7.5-4.53-16.24-6.8-26.23-6.8s-18.74,2.27-26.23,6.8c-7.5,4.55-13.3,10.65-17.42,18.3-4.12,7.66-6.18,16.16-6.18,25.51s2.06,17.84,6.18,25.5c4.12,7.66,9.93,13.76,17.42,18.3,7.5,4.54,16.24,6.81,26.23,6.81s18.73-2.27,26.23-6.81c7.5-4.54,13.3-10.64,17.42-18.3,4.12-7.66,6.18-16.15,6.18-25.5s-2.06-17.85-6.18-25.51c-4.12-7.65-9.93-13.75-17.42-18.3ZM1569.42,186.03c-1.64,4.52-4.27,8.13-7.88,10.85-3.6,2.7-8.33,4.06-14.14,4.06s-10.54-1.36-14.15-4.06c-3.6-2.72-6.23-6.33-7.88-10.85-1.64-4.52-2.46-9.42-2.46-14.72s.82-10.2,2.46-14.73c1.64-4.52,4.27-8.13,7.88-10.84,3.6-2.72,8.33-4.06,14.15-4.06s10.54,1.35,14.14,4.06c3.6,2.7,6.23,6.32,7.88,10.84,1.64,4.53,2.46,9.44,2.46,14.73s-.82,10.2-2.46,14.72Z"/><g><path class="cls-1" d="M272.64,38.51c-28.52-17.82-66.06-13.59-99.49,7.46-33.43-21.04-70.96-25.28-99.47-7.46-45.05,28.15-50.52,100.66-12.22,161.96,28.24,45.2,72.39,71.67,111.7,71.18,39.31.49,83.46-25.98,111.7-71.18,38.3-61.3,32.83-133.81-12.22-161.96ZM82.17,187.53c-8.06-12.9-14.01-26.51-17.68-40.48-3.46-13.15-4.75-25.99-3.83-38.16,1.71-22.64,10.93-40.29,25.96-49.68,15.03-9.39,34.93-9.94,56.03-1.55,3.18,1.26,6.32,2.73,9.43,4.35-11.25,10.19-21.58,22.44-30.37,36.51-23.28,37.25-30.36,78.63-22.24,111.69-6.36-6.86-12.16-14.45-17.3-22.69ZM281.83,147.05c-3.67,13.96-9.62,27.58-17.68,40.48-5.15,8.24-10.94,15.82-17.3,22.68,7.26-29.6,2.35-65.85-15.47-99.85-1.25-2.39-4.15-3.18-6.44-1.75l-55.47,34.66c-2.12,1.33-2.77,4.13-1.44,6.25l8.13,13.01c1.33,2.12,4.13,2.77,6.25,1.44l35.95-22.47c1.2,3.45,2.29,6.93,3.21,10.43,3.46,13.15,4.75,25.99,3.83,38.16-1.71,22.64-10.93,40.29-25.96,49.68-7.51,4.69-16.23,7.18-25.71,7.44-.21,0-.42,0-.62,0-.18,0-.36,0-.53,0-9.48-.27-18.2-2.75-25.71-7.44-15.03-9.39-24.25-27.04-25.96-49.68-.92-12.16.37-25,3.83-38.16,3.67-13.96,9.62-27.58,17.68-40.48,8.06-12.9,17.69-24.21,28.63-33.63,10.31-8.88,21.28-15.66,32.62-20.17,21.1-8.39,41-7.84,56.03,1.55,15.03,9.39,24.25,27.04,25.96,49.68.92,12.16-.37,25-3.83,38.16Z"/><path class="cls-1" d="M568.07,119.87c29.36,0,52.94,22.77,52.94,51.74s-23.57,51.14-52.94,51.14-52.74-22.37-52.74-51.14,23.57-51.74,52.74-51.74M568.07,195.72c13.64,0,23.88-10.87,23.88-24.32s-10.23-24.51-23.88-24.51-23.67,11.07-23.67,24.51,10.23,24.32,23.67,24.32M759.56,149.83c0,41.55-29.84,70.12-72.79,70.12h-53.66c-2.6,0-4.39-2-4.39-4.59V84.51c0-2.4,1.8-4.4,4.39-4.4h53.66c42.95,0,72.79,27.97,72.79,69.71M728.19,149.83c0-24.37-16.38-42.15-40.15-42.15h-29.36v84.7h29.36c23.77,0,40.15-18.58,40.15-42.55M814.05,119.87c12.99,0,23.37,5.59,27.97,13.18v-5.99c0-2.4,2.2-4.4,4.2-4.4h20.17c2.4,0,4.19,2,4.19,4.4v88.69c0,2.4-1.8,4.19-4.19,4.19h-20.17c-2.2,0-4.2-1.8-4.2-4.19v-6.19c-4.59,7.59-15.18,13.18-28.16,13.18-25.17,0-48.54-20.17-48.54-51.54s23.57-51.34,48.74-51.34M819.45,195.92c13.37,0,23.4-10.26,23.4-24.51s-10.03-24.51-23.4-24.51-23.4,10.26-23.4,24.51,10.03,24.51,23.4,24.51M926.71,119.87c13.18,0,23.77,5.59,28.36,12.78v-48.34c0-2.4,2-4.19,4.39-4.19h20.18c2.4,0,4.19,1.8,4.19,4.19v131.44c0,2.4-1.8,4.19-4.19,4.19h-20.18c-2.2,0-4.19-1.8-4.19-4.19v-6.19c-5.39,7.59-15.18,13.18-28.17,13.18-25.17,0-48.54-20.17-48.54-51.54s23.17-51.34,48.14-51.34M932.71,196.17c13.31,0,23.29-10.37,23.29-24.77s-9.98-24.77-23.29-24.77-23.3,10.37-23.3,24.77,9.98,24.77,23.3,24.77M1039.97,119.87c13.18,0,23.77,5.59,28.36,12.78v-48.34c0-2.4,2-4.19,4.39-4.19h20.18c2.4,0,4.19,1.8,4.19,4.19v131.44c0,2.4-1.8,4.19-4.19,4.19h-20.18c-2.2,0-4.19-1.8-4.19-4.19v-6.19c-5.39,7.59-15.18,13.18-28.17,13.18-25.17,0-48.54-20.17-48.54-51.54s23.17-51.34,48.14-51.34M1045.97,196.17c13.31,0,23.29-10.37,23.29-24.77s-9.98-24.77-23.29-24.77-23.3,10.37-23.3,24.77,9.98,24.77,23.3,24.77M1199.54,122.66h-20.13c-3.2,0-4.79,2.2-5.39,4.59l-18.58,69.48-19.9-69.48c-1.15-3.7-2.96-4.59-5.55-4.59h-21.22c-4.99,0-5.91,3.4-4.91,6.79l26.93,86.29c.8,2.4,2.4,4.19,5.39,4.19h12.19l-2.59,8.57c-2.55,7.4-7.3,9.39-13.51,9.39-5.32,0-8.81-2.1-12.57-4.53-1.45-.94-2.57-1.38-3.97-1.38-1.81,0-3.06.81-4.75,3.31l-5.98,8.95c-1.17,1.86-1.8,2.88-1.8,4.86,0,3.18,3.17,5.17,6.98,7.34,6.55,3.74,14.9,5.61,24.07,5.61,20.17,0,33.16-10.99,38.95-29.36l30.11-103.26c1.4-4,.2-6.79-3.8-6.79ZM481.96,200.86c-10.57,13.36-28.96,21.76-49.75,21.76-39.05,0-69.57-29.37-69.57-71.19s32.95-73.42,74.57-73.42c30.72,0,55.29,13.21,66.19,39.79.34.87.51,1.56.51,2.22,0,1.26-.83,2.21-3.48,3.14l-19.45,7.49c-1.5.51-2.77.47-3.68.05-1-.46-1.6-1.38-2.32-2.66-6.92-13.27-19.39-22.29-38.51-22.29-24.8,0-42.55,19.37-42.55,44.48s15.14,44.35,43.26,44.35c14.8,0,26.61-7,32.11-14.64h-17.56c-2.58,0-4.56-1.98-4.56-4.56v-14.99c0-2.58,1.98-4.56,4.56-4.56h51.46c2.58,0,4.56,1.78,4.56,4.36v55.16c0,2.58-1.98,4.56-4.56,4.56h-16.65c-2.58,0-4.56-1.98-4.56-4.56v-14.48Z"/></g><polygon class="cls-3" points="1331.59 165.33 1312.52 112.82 1322.05 76.71 1351.91 151.71 1331.59 165.33"/></svg>