<svg width="457" height="42.145" viewBox="0 0 457 42.145" xmlns="http://www.w3.org/2000/svg"><path d="M13.26 7.577H10.48L.596 33.123h3.939l2.15-5.781H17l2.132 5.78h4.03zM7.77 24.144l4.064-11.364 4.102 11.364zM26.576 33.123h3.559V22.77c0-3.252 1.698-4.896 4.444-4.896 2.367 0 3.902 1.536 3.902 4.57v10.678h3.578V21.994c0-4.68-2.53-7.263-6.45-7.263-2.114 0-4.101.922-5.474 2.8v-2.474h-3.56zM52.158 33.448c2.565 0 4.607-.994 6.196-3.36l.235 3.035h2.963V22.247c0-4.77-2.692-7.516-7.389-7.516-3.234 0-5.619 1.21-7.534 3.867l2.746 1.969c1.066-1.753 2.656-2.71 4.644-2.71 2.583 0 4.119 1.445 4.137 4.643h-4.788c-4.878 0-7.443 2.06-7.443 5.474 0 3.415 2.367 5.474 6.233 5.474zm.722-3.035c-2.15 0-3.288-1.03-3.288-2.602 0-1.626 1.229-2.71 3.92-2.71h4.644v.452c0 2.349-2.15 4.86-5.276 4.86zM66.846 33.123h3.559V22.77c0-3.252 1.698-4.896 4.444-4.896 2.367 0 3.902 1.536 3.902 4.57v10.678h3.578V21.994c0-4.68-2.53-7.263-6.45-7.263-2.114 0-4.101.922-5.474 2.8v-2.474h-3.56zM89.194 40.873h3.884l10.153-25.816h-3.775l-5.167 13.35-5.131-13.35h-4.065l7.37 17.885zM110.729 33.448c2.565 0 4.607-.994 6.197-3.36l.235 3.035h2.963V22.247c0-4.77-2.692-7.516-7.39-7.516-3.234 0-5.618 1.21-7.533 3.867l2.746 1.969c1.066-1.753 2.656-2.71 4.643-2.71 2.583 0 4.119 1.445 4.137 4.643h-4.788c-4.877 0-7.443 2.06-7.443 5.474 0 3.415 2.367 5.474 6.233 5.474zm.723-3.035c-2.15 0-3.288-1.03-3.288-2.602 0-1.626 1.228-2.71 3.92-2.71h4.643v.452c0 2.349-2.15 4.86-5.275 4.86zM149.138 33.123h4.354a510.461 510.461 0 00-5.257-5.691c1.3-1.463 2.746-3.27 4.444-5.438l-2.457-2.096c-1.59 2.168-2.909 3.92-4.083 5.312-1.933-2.042-3.505-3.686-4.77-5.059 4.03-2.403 5.601-4.245 5.601-7.244 0-3.343-2.692-5.655-6.413-5.655-3.957 0-6.92 2.511-6.92 5.926 0 2.077.831 3.812 2.819 6.25-3.957 2.259-5.51 4.68-5.51 7.679 0 3.812 2.691 6.341 6.792 6.341 3.216 0 5.456-.94 8.293-3.667.957 1.03 2.005 2.15 3.107 3.342zM137.016 13.05c0-1.806 1.39-2.98 3.414-2.98 1.97 0 3.234 1.318 3.234 3.016 0 1.951-1.41 3.36-4.227 4.878-1.771-2.114-2.421-3.414-2.421-4.914zm-2.656 13.893c0-2.041 1.048-3.613 4.029-5.275 1.463 1.608 3.306 3.523 5.582 5.944-2.096 2.041-3.74 2.764-5.8 2.764-2.492 0-3.811-1.3-3.811-3.433zM186.247 33.123l-10.352-15.375 9.99-10.17h-4.842L167.73 21.433V7.577h-3.722v25.546h3.722v-7.064l5.654-5.745 8.22 12.809zM189.788 33.123h3.559V22.77c0-3.252 1.698-4.896 4.444-4.896 2.367 0 3.902 1.536 3.902 4.57v10.678h3.578V21.994c0-4.68-2.53-7.263-6.45-7.263-2.114 0-4.047.868-5.474 2.819V7.577h-3.56zM212.136 40.873h3.884l10.153-25.816h-3.776l-5.167 13.35-5.13-13.35h-4.065l7.37 17.885zM233.67 33.448c2.566 0 4.608-.994 6.198-3.36l.235 3.035h2.962V22.247c0-4.77-2.691-7.516-7.389-7.516-3.234 0-5.618 1.21-7.533 3.867l2.746 1.969c1.066-1.753 2.655-2.71 4.643-2.71 2.583 0 4.119 1.445 4.137 4.643h-4.788c-4.878 0-7.443 2.06-7.443 5.474 0 3.415 2.367 5.474 6.233 5.474zm.724-3.035c-2.15 0-3.289-1.03-3.289-2.602 0-1.626 1.229-2.71 3.92-2.71h4.644v.452c0 2.349-2.15 4.86-5.275 4.86zM254.465 33.448c1.12 0 2.295-.235 2.891-.47v-3.233c-.614.27-1.5.56-2.349.56-1.481 0-2.42-.705-2.42-2.8V18h4.75v-2.944h-4.75V8.209h-3.578v6.848h-2.908V18h2.908v10.027c0 3.433 1.988 5.42 5.456 5.42zM263.228 11.57c1.174 0 2.113-.94 2.113-2.114 0-1.156-.94-2.132-2.113-2.132a2.136 2.136 0 00-2.132 2.132c0 1.174.94 2.114 2.132 2.114zm-1.789 21.553h3.559V15.057h-3.559z"/></svg>