<svg width="538" height="34.482" viewBox="0 0 538 34.482" xmlns="http://www.w3.org/2000/svg"><path d="M3.11 6.553v22.094h3.218v-9.234h3.328c4.61 0 7.766-2.282 7.766-6.422 0-4.063-3.14-6.438-7.625-6.438zm6.578 9.906h-3.36V9.506h3.36c2.953 0 4.421 1.313 4.421 3.532 0 2.234-1.421 3.421-4.421 3.421zM31.453 6.553v22.094h14.578v-2.984h-11.36v-6.72h10.423v-2.905H34.672V9.475h11.36V6.553zM69.484 6.553h-2.406l-8.547 22.094h3.407l1.859-5h8.922l1.844 5h3.484zm-4.75 14.328l3.516-9.828 3.547 9.828zM107.36 28.647l-5.72-9.938c2.922-.843 4.704-3.03 4.704-5.89 0-3.828-2.922-6.266-7.375-6.266h-7.297v22.094h3.219v-9.563h3.625l5.171 9.563zm-8.563-12.422h-3.89v-6.75h3.859c2.734 0 4.312 1.25 4.312 3.375s-1.484 3.375-4.281 3.375zM121.39 6.553v22.094h12.922V25.6h-9.703V6.553zM148.453 6.553v22.094h3.219V6.553zM172.516 9.475v19.172h3.218V9.475h7.25V6.553h-17.718v2.922zM204.344 28.928c5.687 0 8.265-3.406 8.265-8.922V6.553h-3.218v13.25c0 3.922-1.235 6.11-4.985 6.11s-5.031-2.172-5.031-6.079V6.554h-3.203v13.624c0 5.375 2.516 8.75 8.172 8.75zM228.344 6.553v22.094h3.219v-9.234h3.328c4.609 0 7.765-2.282 7.765-6.422 0-4.063-3.14-6.438-7.625-6.438zm6.578 9.906h-3.36V9.506h3.36c2.953 0 4.422 1.313 4.422 3.532 0 2.234-1.422 3.421-4.422 3.421zM255.422 28.928a1.97 1.97 0 001.969-1.969c0-1.093-.891-1.921-1.97-1.921-1.077 0-1.937.859-1.937 1.921 0 1.079.844 1.97 1.938 1.97zM273.266 6.553v22.094h3.218V6.553zM292.688 6.553v22.094h3.078V11.928l10.015 16.719H309V6.553h-3.078v16.703l-10-16.703z"/></svg>