<svg width="435" height="290.979" viewBox="0 0 435 290.979" xmlns="http://www.w3.org/2000/svg"><g fill="#111"><path d="M22.278 11.3h-3.101L.89 61.7H4.67l4.42-12.44h23.17l4.42 12.44h3.884zm-12.19 34.788l10.586-30.084L31.26 46.088zM47.407 16.432c1.39 0 2.567-1.176 2.567-2.566a2.579 2.579 0 00-2.567-2.567 2.556 2.556 0 00-2.566 2.567c0 1.39 1.14 2.566 2.566 2.566zm-1.675 45.269h3.35V26.056h-3.35zM57.637 61.7h3.35V42.56c0-8.555 4.67-13.688 10.552-13.688.962 0 1.96.107 3.208.463v-3.493c-.927-.214-1.854-.285-2.995-.285-4.74 0-8.768 2.994-10.764 8.377v-7.878h-3.35zM94.708 62.414c10.265 0 18.214-8.127 18.214-18.5 0-10.408-7.949-18.57-18.179-18.57-10.265 0-18.214 8.126-18.214 18.499 0 10.408 7.949 18.57 18.179 18.57zm.035-2.995c-8.198 0-14.65-6.808-14.65-15.612 0-8.697 6.452-15.47 14.615-15.47 8.198 0 14.65 6.809 14.65 15.613 0 8.697-6.452 15.47-14.615 15.47z"/></g><g fill="#111"><path d="M175.399 16.432c1.39 0 2.566-1.176 2.566-2.566a2.579 2.579 0 00-2.566-2.567 2.556 2.556 0 00-2.567 2.567c0 1.39 1.14 2.566 2.567 2.566zm-1.676 45.269h3.351V26.056h-3.35zM195.217 62.414c8.377 0 13.046-4.064 13.046-9.874 0-14.33-21.315-7.271-21.315-18.036 0-3.244 2.709-6.238 7.948-6.238 5.525 0 8.555 2.673 8.911 7.343l3.244.036c-.143-6.238-4.313-10.302-12.083-10.302-7.2 0-11.3 4.42-11.3 9.232 0 14.187 21.244 6.773 21.244 18.072 0 4.1-3.136 6.88-9.552 6.844-6.31-.036-9.232-2.852-9.624-7.949l-3.315-.036c.534 6.808 4.633 10.908 12.796 10.908zM239.559 62.414c1.461 0 3.065-.25 4.242-.642v-3.101c-1.39.463-2.531.677-4.064.677-4.063 0-6.38-2.53-6.38-9.125V29.23h10.123v-3.173h-10.123V16.79l-3.35.463v8.804h-5.954v3.173h5.953v21.28c0 8.198 3.458 11.905 9.553 11.905zM248.363 61.7h3.35V40.992c0-7.628 5.24-12.654 11.763-12.654 6.238 0 9.91 3.779 9.91 11.086V61.7h3.35V38.995c0-8.483-4.74-13.652-13.01-13.652-5.204 0-9.553 2.567-12.012 6.95V11.3h-3.35zM299.513 62.414c8.305 0 14.33-3.921 16.396-12.048h-3.314c-1.854 6.344-6.56 9.018-13.046 9.018-8.484 0-13.973-5.882-14.009-15.113h30.726c.071-1.105.107-2.175.107-3.315 0-9.98-6.844-15.613-16.218-15.613-10.765 0-18.072 8.092-18.072 18.963 0 10.836 6.88 18.108 17.43 18.108zm.428-34.112c7.52 0 13.081 4.313 13.081 12.618v.499H285.72c1.069-7.628 6.522-13.117 14.222-13.117z"/></g><g fill="#111"><path d="M18.785 135.414c8.626 0 14.044-3.814 16.29-10.872h-3.387c-1.996 5.204-6.095 7.877-12.832 7.877-8.27 0-13.866-5.952-13.866-15.54 0-8.876 6.024-15.542 14.009-15.542 6.7 0 10.657 2.567 12.297 7.807h3.422c-2.317-7.236-7.2-10.8-15.613-10.8-10.051 0-17.68 7.984-17.68 18.57 0 11.228 7.094 18.5 17.36 18.5zM55.926 135.414c10.266 0 18.215-8.127 18.215-18.5 0-10.408-7.95-18.57-18.18-18.57-10.265 0-18.213 8.126-18.213 18.499 0 10.408 7.948 18.57 18.178 18.57zm.036-2.995c-8.198 0-14.65-6.808-14.65-15.612 0-8.697 6.452-15.47 14.614-15.47 8.199 0 14.65 6.809 14.65 15.613 0 8.697-6.451 15.47-14.614 15.47zM79.844 134.7h3.35V84.3h-3.35zM91.749 134.7h3.35V84.3h-3.35zM118.233 135.414c8.305 0 14.329-3.921 16.396-12.048h-3.315c-1.853 6.344-6.558 9.018-13.045 9.018-8.484 0-13.973-5.882-14.009-15.113h30.726c.071-1.105.107-2.175.107-3.315 0-9.98-6.844-15.613-16.218-15.613-10.765 0-18.072 8.092-18.072 18.963 0 10.836 6.88 18.108 17.43 18.108zm.428-34.112c7.52 0 13.081 4.313 13.081 12.618v.499h-27.304c1.07-7.628 6.523-13.117 14.223-13.117zM149.743 135.414c6.594 0 10.907-2.353 13.758-7.77l.179 7.057h2.887v-22.385c0-8.947-4.955-13.973-13.189-13.973-6.38 0-11.584 3.208-13.794 9.589h3.28c1.46-4.278 5.275-6.666 10.336-6.666 6.31 0 10.23 3.957 10.23 11.406v3.779c-3.422-1.426-6.88-2.317-11.157-2.317-8.768 0-14.329 4.491-14.329 11.12 0 5.954 4.206 10.16 11.799 10.16zm-8.341-10.373c0-4.598 3.885-8.02 10.693-8.02 4.206 0 7.45.82 11.3 2.495-.357 6.63-4.35 12.94-13.225 12.94-5.952 0-8.768-3.066-8.768-7.415zM188.274 150.17c10.587 0 16.61-6.13 16.61-18.927V99.056h-3.35v7.486c-2.851-5.383-7.592-8.199-13.652-8.199-9.552 0-16.325 7.13-16.325 18.571 0 11.37 6.737 18.5 16.218 18.5 6.096 0 10.908-2.816 13.76-8.199v4.563c0 10.871-4.563 15.47-13.332 15.47-6.238 0-10.266-2.567-11.905-7.914h-3.315c2.281 7.379 7.307 10.836 15.291 10.836zm-.32-17.75c-7.7 0-12.868-6.06-12.868-15.577 0-9.446 5.204-15.506 12.975-15.506 8.27 0 13.723 5.704 13.723 15.541 0 9.838-5.49 15.541-13.83 15.541zM226.093 135.414c5.204 0 9.553-2.567 12.012-6.951v6.238h3.351V99.056h-3.35v20.71c0 7.628-5.24 12.653-11.763 12.653-6.238 0-9.91-3.778-9.91-11.085V99.056h-3.35v22.706c0 8.483 4.74 13.652 13.01 13.652zM264.59 135.414c8.305 0 14.328-3.921 16.396-12.048h-3.315c-1.854 6.344-6.559 9.018-13.046 9.018-8.483 0-13.973-5.882-14.008-15.113h30.725c.072-1.105.107-2.175.107-3.315 0-9.98-6.844-15.613-16.218-15.613-10.765 0-18.072 8.092-18.072 18.963 0 10.836 6.88 18.108 17.43 18.108zm.427-34.112c7.521 0 13.082 4.313 13.082 12.618v.499h-27.304c1.07-7.628 6.523-13.117 14.222-13.117z"/></g><g fill="#111"><path d="M17.288 223.17c9.766 0 15.006-5.24 15.006-16.539v-34.575h-3.35v20.496c0 7.628-5.24 12.654-11.763 12.654-6.238 0-9.91-3.779-9.91-11.086v-22.064h-3.35v22.492c0 8.483 4.74 13.652 13.01 13.652 5.204 0 9.553-2.567 12.012-6.951v5.739c0 9.624-3.885 13.33-11.442 13.33-5.88 0-9.16-2.352-10.158-7.2h-3.28c1.355 6.488 5.668 10.052 13.225 10.052zM56.176 208.414c10.265 0 18.214-8.127 18.214-18.5 0-10.408-7.949-18.57-18.179-18.57-10.265 0-18.214 8.126-18.214 18.499 0 10.408 7.949 18.57 18.179 18.57zm.035-2.995c-8.198 0-14.65-6.808-14.65-15.612 0-8.697 6.452-15.47 14.615-15.47 8.198 0 14.65 6.809 14.65 15.613 0 8.697-6.452 15.47-14.615 15.47zM92.747 208.414c5.204 0 9.553-2.567 12.012-6.951v6.238h3.35v-35.645h-3.35v20.71c0 7.628-5.24 12.653-11.762 12.653-6.238 0-9.91-3.778-9.91-11.085v-22.278h-3.35v22.706c0 8.483 4.74 13.652 13.01 13.652zM118.946 159.367c0-1.39-1.105-2.531-2.567-2.531-1.425 0-2.566 1.14-2.566 2.53 0 2.852 1.105 5.81 1.105 12.44h2.923c0-6.63 1.105-9.588 1.105-12.44zM121.512 172.056l14.543 35.645h2.887l14.543-35.645h-3.6l-12.261 31.296-12.405-31.296zM171.985 208.414c8.305 0 14.329-3.921 16.396-12.048h-3.315c-1.853 6.344-6.558 9.018-13.045 9.018-8.484 0-13.973-5.882-14.009-15.113h30.726c.071-1.105.107-2.175.107-3.315 0-9.98-6.844-15.613-16.219-15.613-10.764 0-18.071 8.092-18.071 18.963 0 10.836 6.88 18.108 17.43 18.108zm.428-34.112c7.52 0 13.081 4.313 13.081 12.618v.499H158.19c1.07-7.628 6.523-13.117 14.223-13.117z"/></g><g fill="#111"><path d="M218.109 208.414c5.881 0 9.873-2.068 12.868-6.737l.32 6.024h4.955v-22.064c0-8.911-5.49-14.294-14.08-14.294-7.485 0-12.725 3.921-14.115 10.587l5.56.071c1.034-3.422 3.85-5.49 8.27-5.49 5.49 0 8.769 3.423 8.769 9.447v2.566c-3.208-1.14-6.594-1.854-10.302-1.854-8.982 0-14.257 4.385-14.222 11.193-.035 6.416 4.313 10.55 11.977 10.55zm-6.06-10.872c-.035-3.564 2.994-6.13 8.555-6.13 3.671 0 6.63.605 9.98 2.03-.463 5.24-4.42 9.946-11.441 9.946-4.848 0-7.13-2.353-7.094-5.846zM243.56 207.7h5.916v-50.4h-5.917zM253.896 172.056l10.515 35.645h5.525l8.84-27.411 8.875 27.41h5.49l10.622-35.644h-6.416l-7.13 26.662-8.625-26.662h-5.525l-8.626 26.698-7.129-26.698zM317.664 208.414c5.881 0 9.874-2.068 12.868-6.737l.32 6.024h4.955v-22.064c0-8.911-5.49-14.294-14.08-14.294-7.485 0-12.725 3.921-14.115 10.587l5.56.071c1.035-3.422 3.85-5.49 8.27-5.49 5.49 0 8.769 3.423 8.769 9.447v2.566c-3.208-1.14-6.594-1.854-10.301-1.854-8.983 0-14.258 4.385-14.223 11.193-.035 6.416 4.313 10.55 11.977 10.55zm-6.06-10.872c-.035-3.564 2.995-6.13 8.555-6.13 3.672 0 6.63.605 9.98 2.03-.463 5.24-4.42 9.946-11.441 9.946-4.848 0-7.13-2.353-7.094-5.846zM357.158 223.17c9.696 0 15.72-5.917 15.72-16.717v-34.397h-5.882v20.71c0 6.237-4.135 10.3-9.695 10.3-5.49 0-8.697-3.35-8.697-9.445v-21.565h-5.917v22.527c0 8.306 4.954 13.688 13.117 13.688 4.67 0 8.697-2.21 11.192-5.846v4.955c0 7.485-3.457 10.978-9.873 10.978-5.347 0-8.127-2.245-8.912-6.558h-5.703c1.07 7.057 6.024 11.37 14.65 11.37zM391.484 208.414c8.519 0 13.367-4.492 13.367-10.373 0-13.367-20.104-8.519-20.104-17.18 0-2.531 2.139-4.777 6.167-4.777 4.562 0 7.057 2.174 7.235 6.095h5.383c-.072-6.88-4.278-10.836-12.333-10.836-7.628 0-12.084 4.42-12.084 9.874 0 13.616 19.997 8.305 19.997 17.323 0 3.101-2.495 5.204-7.486 5.168-5.489 0-7.984-2.352-8.162-6.522h-5.454c.285 7.093 5.169 11.228 13.474 11.228z"/></g><g fill="#111"><path d="M.713 245.056l10.159 35.645h3.35l10.622-30.69 10.622 30.69h3.35l10.195-35.645h-3.636l-8.305 30.405-10.55-30.405h-3.28l-10.515 30.476-8.376-30.476zM62.984 281.414c6.594 0 10.907-2.353 13.759-7.77l.178 7.057h2.887v-22.385c0-8.947-4.954-13.973-13.188-13.973-6.38 0-11.585 3.208-13.795 9.589h3.28c1.46-4.278 5.275-6.666 10.336-6.666 6.31 0 10.23 3.957 10.23 11.406v3.779c-3.421-1.426-6.879-2.317-11.156-2.317-8.769 0-14.33 4.491-14.33 11.12 0 5.954 4.207 10.16 11.799 10.16zm-8.34-10.373c0-4.598 3.884-8.02 10.692-8.02 4.206 0 7.45.82 11.3 2.495-.357 6.63-4.349 12.94-13.224 12.94-5.953 0-8.769-3.066-8.769-7.415zM87.293 280.7h3.351v-20.709c0-7.628 5.24-12.654 11.763-12.654 6.238 0 9.909 3.779 9.909 11.086V280.7h3.35v-22.706c0-8.483-4.74-13.652-13.01-13.652-5.204 0-9.552 2.567-12.012 6.95v-6.237h-3.35zM135.45 281.414c1.46 0 3.065-.25 4.24-.642v-3.101c-1.39.463-2.53.677-4.063.677-4.063 0-6.38-2.53-6.38-9.125V248.23h10.123v-3.173h-10.123v-9.267l-3.35.463v8.804h-5.953v3.173h5.952v21.28c0 8.198 3.458 11.905 9.553 11.905zM159.082 281.414c8.305 0 14.329-3.921 16.396-12.048h-3.315c-1.853 6.344-6.559 9.018-13.046 9.018-8.483 0-13.972-5.882-14.008-15.113h30.725c.072-1.105.107-2.175.107-3.315 0-9.98-6.843-15.613-16.218-15.613-10.765 0-18.072 8.092-18.072 18.963 0 10.836 6.88 18.108 17.43 18.108zm.427-34.112c7.521 0 13.082 4.313 13.082 12.618v.499h-27.304c1.07-7.628 6.523-13.117 14.222-13.117zM212.299 280.7v-50.4h-3.35v22.242c-2.852-5.383-7.593-8.199-13.653-8.199-9.552 0-16.325 7.13-16.325 18.571 0 11.37 6.737 18.5 16.218 18.5 6.096 0 10.908-2.816 13.76-8.199v7.486zm-16.931-2.28c-7.7 0-12.868-6.06-12.868-15.577 0-9.446 5.204-15.506 12.975-15.506 8.27 0 13.723 5.704 13.723 15.541 0 9.838-5.49 15.541-13.83 15.541zM224.49 281.2c1.39 0 2.566-1.177 2.566-2.567 0-1.39-1.177-2.566-2.567-2.566-1.39 0-2.566 1.176-2.566 2.566s1.176 2.567 2.566 2.567z"/></g></svg>